<svg width="122" height="48" viewBox="0 0 122 48" fill="none" xmlns="http://www.w3.org/2000/svg">
<path d="M28.167 12.1602L16.5539 24.5292C14.7214 26.481 11.645 26.61 9.60049 24.8208L3.16991 19.1933" stroke="white" stroke-width="5" stroke-linecap="round"/>
<path d="M10.7624 11.5811L16.6426 17.0795C18.6699 18.9752 18.7754 22.1452 16.878 24.1508L5.77429 35.8882" stroke="white" stroke-width="5" stroke-linecap="round"/>
<path d="M33 12.6644C33 10.2957 30.091 9.16078 28.4869 10.9037L16.1864 24.2687L5.25319 35.5942C3.6597 37.2449 4.82945 40 7.12378 40H30.4C31.8359 40 33 38.8359 33 37.4V12.6644Z" fill="#214ADC"/>
<circle cx="4" cy="4" r="4" transform="matrix(-1 0 0 1 27.6611 26.3135)" fill="white"/>
<path d="M48.0989 32.6291H45V15H48.1238L55.746 26.9176L56.2208 28.0797L56.1209 26.8187V15H59.2197V32.6291H56.1959L48.4737 20.5632L47.9739 19.4011L48.0989 20.6374V32.6291Z" fill="white"/>
<path d="M76.1143 28.4258C75.2896 31.3187 72.9654 33 69.1918 33C64.3436 33 61.9695 30.2308 61.9695 25.8297V25.4835C61.9695 23.9506 62.2694 22.6896 62.8692 21.5522C64.0687 19.3269 66.2679 18.0659 69.2918 18.0659C71.7659 18.0659 73.5152 18.9066 74.6648 20.2665C75.8144 21.6264 76.3142 23.3819 76.3142 25.2115V26.7198H65.2183C65.4932 29.044 66.9427 30.3297 69.3168 30.3297C71.0661 30.3297 72.0908 29.6621 72.5906 28.4258H76.1143ZM69.3168 20.6374C67.0426 20.6374 65.6181 21.9231 65.2433 24.1731H73.0404C72.8155 21.9973 71.6159 20.6374 69.3168 20.6374Z" fill="white"/>
<path d="M83.929 27.5357L80.3303 32.6291H76.3568L82.0796 25.1868L76.9565 18.4121H80.8051L83.9539 22.9368L87.2027 18.4121H91.0013L85.8033 25.1621L91.3512 32.6291H87.5026L83.929 27.5357Z" fill="white"/>
<path d="M102.538 29.7857C101.563 31.6401 99.639 33 96.6651 33C93.5412 33 91.9668 31.5165 91.9668 29.1923C91.9668 27.6099 92.6665 26.4231 93.8411 25.706C94.241 25.4341 94.6658 25.2363 95.0656 25.1126C95.9153 24.8159 96.9899 24.6181 98.7893 24.3462C101.363 24.0247 102.388 23.6786 102.388 22.5165C102.388 21.3297 101.613 20.5879 99.3641 20.5879C96.9899 20.5879 95.9153 21.6016 95.8154 23.4313H92.4416C92.6665 20.1923 95.0656 18.0659 99.1891 18.0659C100.764 18.0659 101.963 18.2637 102.913 18.6841C104.787 19.4753 105.537 20.9835 105.537 23.0357V32.6291H102.888L102.538 29.7857ZM97.7896 30.5027C98.7393 30.5027 99.539 30.2802 100.239 29.8599C101.638 28.9945 102.413 27.5604 102.413 26.2005V25.4341C101.813 25.8544 100.814 26.1511 99.514 26.3489C97.7646 26.6209 97.0649 26.8187 96.3902 27.239C95.8154 27.6099 95.5405 28.1044 95.5405 28.7225C95.5405 29.9093 96.2902 30.5027 97.7896 30.5027Z" fill="white"/>
<path d="M118.501 29.7857C117.526 31.6401 115.602 33 112.628 33C109.504 33 107.93 31.5165 107.93 29.1923C107.93 27.6099 108.63 26.4231 109.804 25.706C110.204 25.4341 110.629 25.2363 111.029 25.1126C111.879 24.8159 112.953 24.6181 114.753 24.3462C117.327 24.0247 118.351 23.6786 118.351 22.5165C118.351 21.3297 117.576 20.5879 115.327 20.5879C112.953 20.5879 111.879 21.6016 111.779 23.4313H108.405C108.63 20.1923 111.029 18.0659 115.152 18.0659C116.727 18.0659 117.926 18.2637 118.876 18.6841C120.75 19.4753 121.5 20.9835 121.5 23.0357V32.6291H118.851L118.501 29.7857ZM113.753 30.5027C114.703 30.5027 115.502 30.2802 116.202 29.8599C117.601 28.9945 118.376 27.5604 118.376 26.2005V25.4341C117.776 25.8544 116.777 26.1511 115.477 26.3489C113.728 26.6209 113.028 26.8187 112.353 27.239C111.779 27.6099 111.504 28.1044 111.504 28.7225C111.504 29.9093 112.253 30.5027 113.753 30.5027Z" fill="white"/>
</svg>
