<svg width="33" height="32" viewBox="0 0 33 32" fill="none" xmlns="http://www.w3.org/2000/svg">
<g id="Frame 69">
<g id="Group 25">
<g id="Group 19">
<path id="Line 7" d="M28.167 4.16016L16.5539 16.5292C14.7214 18.481 11.645 18.61 9.60049 16.8208L3.16991 11.1933" stroke="#1C1C1C" stroke-width="5" stroke-linecap="round"/>
<path id="Line 8" d="M10.7624 3.5809L16.6426 9.07937C18.6699 10.975 18.7754 14.145 16.878 16.1507L5.77429 27.8881" stroke="#1C1C1C" stroke-width="5" stroke-linecap="round"/>
</g>
<path id="Rectangle 16" d="M33 4.66437C33 2.29569 30.091 1.16078 28.4869 2.90366L16.1864 16.2687L5.25319 27.5942C3.6597 29.2449 4.82945 32 7.12378 32H30.4C31.8359 32 33 30.8359 33 29.4V4.66437Z" fill="#214ADC"/>
<circle id="Ellipse 11" cx="4" cy="4" r="4" transform="matrix(-1 0 0 1 27.6611 18.3134)" fill="white"/>
</g>
</g>
</svg>
